:SAMPLES-PER-SECOND 30
:FULLY-SPECIFIED
:DEGREES
543
root  8.17428 40.5765 -0.175623 -158.808 -84.6381 161.117
RightUpLeg  -5.98185 -9.4788 -4.47965
RightLeg  12.3704 0.929397 3.33359
RightFoot  -9.93768 -0.0703912 0.207001
RightToes  0.00048216 0.542163 -0.142577
Spine  12.7054 0.813207 9.41801
Spine1  4.58827 3.36175 -7.01204
HEad  0.575583 1.80025 -5.95905
LeftShoulder1  6.78804 -10.5539 -41.9032
LeftArm  -22.9245 29.4535 -35.2485
LeftForeArm  20.1587 -23.442 -3.95516
LeftHand  -0.25398 0.0180481 5.50724
RightShoulder  5.13462 8.96938 35.2012
RightArm  -3.72773 -13.0877 33.887
RightForeArm  -1.4339 34.1045 7.70091
RightHand  -0.665679 -0.544462 -15.9074
LeftUpLeg  -9.65245 6.97244 2.65665
LeftLeg  8.60657 4.88261 -1.37335
LeftFoot  -2.61255 0.469735 -5.94808
LeftToes  1.06244e-005 4.65856e-005 -8.18505e-006
544
root  8.67367 40.4688 -0.319567 -149.314 -86.3695 151.829
RightUpLeg  -7.126 -9.50116 -4.15586
RightLeg  13.1651 -1.1272 3.4208
RightFoot  -10.2705 -0.0602143 -0.971414
RightToes  0.00048216 0.542163 -0.142577
Spine  13.4712 0.119837 9.14817
Spine1  3.79946 2.18813 -5.29293
HEad  -3.69226 1.10883 -5.5183
LeftShoulder1  7.09367 -11.0454 -42.3421
LeftArm  -22.1451 28.024 -34.2108
LeftForeArm  24.5647 -28.121 -4.73633
LeftHand  -0.25398 0.0180481 5.50724
RightShoulder  5.24601 9.14181 35.5138
RightArm  -4.30073 -12.608 34.4645
RightForeArm  -2.41182 34.6472 7.90583
RightHand  -0.839192 0.340147 -16.9189
LeftUpLeg  -12.2801 6.65755 1.86564
LeftLeg  11.0989 3.29375 0.0518689
LeftFoot  -3.09636 0.437739 -5.80801
LeftToes  1.06244e-005 4.65856e-005 -8.18505e-006
545
root  9.08925 40.3951 -0.432161 -131.141 -87.9276 133.382
RightUpLeg  -7.66562 -9.8465 -3.82529
RightLeg  14.033 -2.47448 3.40073
RightFoot  -10.3106 -0.0576881 -1.34343
RightToes  0.00048216 0.542163 -0.142577
Spine  14.077 -0.736568 9.96622
Spine1  3.73506 1.35318 -5.12225
HEad  -7.62338 0.322201 -4.97144
LeftShoulder1  7.42237 -11.4235 -43.2416
LeftArm  -20.1341 25.2095 -31.6344
LeftForeArm  29.3743 -31.2367 -5.19008
LeftHand  -0.25398 0.0180481 5.50724
RightShoulder  5.43479 9.36899 36.2319
RightArm  -4.90443 -11.9982 35.1199
RightForeArm  -3.15405 33.4196 7.61027
RightHand  -1.2979 2.50306 -19.1929
LeftUpLeg  -13.9326 4.86126 1.40186
LeftLeg  13.6567 2.89617 0.984237
LeftFoot  -4.23107 0.360274 -5.38404
LeftToes  1.06244e-005 4.65856e-005 -8.18505e-006
546
root  9.39174 40.3945 -0.537979 -107.101 -88.3574 108.921
RightUpLeg  -7.62218 -10.3569 -3.85689
RightLeg  14.1963 -2.83042 3.40558
RightFoot  -10.1664 -0.0586408 -0.997091
RightToes  0.00048216 0.542163 -0.142577
Spine  14.3082 -1.11675 10.4224
Spine1  3.75433 1.10707 -5.49333
HEad  -10.1909 -0.585268 -4.45666
LeftShoulder1  7.57057 -11.5822 -43.666
LeftArm  -18.471 22.1473 -29.4866
LeftForeArm  33.1381 -32.2385 -5.2231
LeftHand  -0.25398 0.0180481 5.50724
RightShoulder  5.63529 9.62978 36.9021
RightArm  -4.85317 -11.4339 35.4264
RightForeArm  -2.24345 29.8688 6.62856
RightHand  -1.59711 3.68772 -20.5622
LeftUpLeg  -14.3639 3.62866 0.658143
LeftLeg  15.5855 2.6539 1.16117
LeftFoot  -5.4931 0.308631 -5.41247
LeftToes  1.06244e-005 4.65856e-005 -8.18505e-006
547
root  9.58911 40.4393 -0.656912 -97.9731 -87.847 99.3855
RightUpLeg  -7.41236 -10.5494 -4.26636
RightLeg  14.0302 -2.82838 3.29895
RightFoot  -9.93336 -0.0562777 -0.888077
RightToes  0.00048216 0.542163 -0.142577
Spine  14.3114 -0.870588 9.61371
Spine1  3.3908 1.19215 -5.09624
HEad  -11.1731 -1.46654 -4.08128
LeftShoulder1  7.39209 -11.4408 -42.9996
LeftArm  -17.8436 19.8351 -28.5234
LeftForeArm  34.5816 -31.4692 -4.96295
LeftHand  -0.25398 0.0180481 5.50724
RightShoulder  5.77949 9.86523 37.2157
RightArm  -4.41641 -11.4224 35.0514
RightForeArm  0.833174 25.3148 5.39555
RightHand  -1.5635 3.57846 -20.3614
LeftUpLeg  -13.7912 4.22413 -0.799019
LeftLeg  16.636 1.87156 0.952766
LeftFoot  -6.09535 0.329583 -6.38309
LeftToes  1.06244e-005 4.65856e-005 -8.18505e-006
548
root  9.69858 40.4723 -0.769673 -97.5984 -87.4013 98.6045
RightUpLeg  -7.18206 -10.4976 -4.57981
RightLeg  13.9906 -2.849 3.24493
RightFoot  -9.52788 -0.0443672 -1.26478
RightToes  0.00048216 0.542163 -0.142577
Spine  14.0802 -0.437183 8.58594
Spine1  2.86386 1.32874 -4.21116
HEad  -11.23 -2.18081 -3.98304
LeftShoulder1  6.89987 -11.0075 -41.2137
LeftArm  -17.5045 18.0802 -28.0186
LeftForeArm  33.674 -29.1006 -4.46126
LeftHand  -0.25398 0.0180481 5.50724
RightShoulder  5.79105 9.96278 36.9952
RightArm  -5.44973 -12.1816 33.9495
RightForeArm  5.13482 21.1315 4.6266
RightHand  -1.67771 4.20752 -20.4096
LeftUpLeg  -12.4962 5.76456 -2.22137
LeftLeg  16.9276 1.46391 0.826351
LeftFoot  -6.09827 0.354654 -6.95249
LeftToes  1.06244e-005 4.65856e-005 -8.18505e-006
549
root  9.72931 40.4769 -0.85174 -98.1729 -87.5625 98.7955
RightUpLeg  -6.69617 -10.4259 -4.43482
RightLeg  13.7136 -2.96554 3.47319
RightFoot  -8.95384 -0.0220584 -1.84458
RightToes  0.00048216 0.542163 -0.142577
Spine  13.3719 -0.198975 8.46867
Spine1  2.64847 1.46004 -3.83208
HEad  -11.0923 -2.55163 -4.20125
LeftShoulder1  6.2032 -10.3562 -38.5673
LeftArm  -16.2648 16.2576 -27.1486
LeftForeArm  31.1119 -24.7908 -3.71336
LeftHand  -0.25398 0.0180481 5.50724
RightShoulder  5.61539 9.83567 36.1115
RightArm  -9.69353 -13.2929 32.0685
RightForeArm  8.98757 17.4055 4.68614
RightHand  -2.17088 6.12941 -21.9911
LeftUpLeg  -10.5679 7.10841 -2.90674
LeftLeg  16.2545 1.99705 0.969013
LeftFoot  -6.36426 0.271167 -5.31199
LeftToes  1.06244e-005 4.65856e-005 -8.18505e-006
550
root  9.6972 40.485 -0.897727 -104.044 -88.0558 104.318
RightUpLeg  -5.84871 -10.2133 -4.0065
RightLeg  12.8369 -3.19238 3.84639
RightFoot  -8.31501 0.0100193 -2.50499
RightToes  0.00048216 0.542163 -0.142577
Spine  12.215 -0.143844 8.76921
Spine1  2.70652 1.50398 -3.8793
HEad  -10.9026 -2.33823 -4.55762
LeftShoulder1  5.41868 -9.5648 -35.3778
LeftArm  -14.8655 14.4856 -25.7712
LeftForeArm  28.2916 -18.6022 -3.25134
LeftHand  -0.25398 0.0180481 5.50724
RightShoulder  5.2261 9.43102 34.4461
RightArm  -14.6567 -13.9684 29.4555
RightForeArm  9.80451 13.7428 4.52872
RightHand  -2.60796 7.59069 -23.4482
LeftUpLeg  -8.15942 7.27817 -2.87165
LeftLeg  14.3494 3.59913 1.06
LeftFoot  -7.10355 0.113166 -1.8902
LeftToes  1.06244e-005 4.65856e-005 -8.18505e-006
551
root  9.63918 40.5239 -0.926271 -112.419 -88.3058 112.326
RightUpLeg  -4.88343 -9.85963 -3.72371
RightLeg  11.7682 -3.4483 4.0176
RightFoot  -7.71212 0.0459997 -3.09983
RightToes  0.00048216 0.542163 -0.142577
Spine  11.0973 -0.196176 8.20978
Spine1  2.51469 1.2292 -3.43171
HEad  -10.4984 -1.49322 -4.70659
LeftShoulder1  4.63236 -8.69293 -31.9236
LeftArm  -15.3707 13.4976 -24.0195
LeftForeArm  26.467 -11.8045 -3.48328
LeftHand  -0.25398 0.0180481 5.50724
RightShoulder  4.65132 8.74929 32.0118
RightArm  -18.4258 -13.7305 26.2941
RightForeArm  7.91955 10.1604 3.90148
RightHand  -2.56736 7.51367 -23.2017
LeftUpLeg  -5.87262 5.53492 -2.50666
LeftLeg  11.8438 6.32249 0.678159
LeftFoot  -7.45473 0.0155409 0.815633
LeftToes  1.06244e-005 4.65856e-005 -8.18505e-006
552
root  9.58969 40.5881 -0.969244 -108.593 -88.1809 108.141
RightUpLeg  -4.09055 -9.57899 -3.80658
RightLeg  11.0216 -3.77337 3.88293
RightFoot  -7.23503 0.0715753 -3.36304
RightToes  0.00048216 0.542163 -0.142577
Spine  10.4126 -0.368482 6.40415
Spine1  1.73898 0.595485 -2.2101
HEad  -9.8948 -0.405484 -4.39087
LeftShoulder1  3.89097 -7.79613 -28.3236
LeftArm  -15.4624 13.5869 -22.0257
LeftForeArm  22.9808 -6.38748 -3.188
LeftHand  -0.25398 0.0180481 5.50724
RightShoulder  4.01052 7.92224 29.1196
RightArm  -20.5671 -12.9454 22.7767
RightForeArm  4.20561 7.3311 3.16532
RightHand  -2.26396 6.62651 -22.0159
LeftUpLeg  -4.36807 3.93903 -2.34221
LeftLeg  9.82342 7.93575 0.0258205
LeftFoot  -6.82064 -0.0116485 1.35881
LeftToes  1.06244e-005 4.65856e-005 -8.18505e-006
553
root  9.54493 40.654 -1.03582 -97.5305 -87.8352 96.8866
RightUpLeg  -3.58555 -9.41396 -4.11557
RightLeg  10.546 -4.172 3.67108
RightFoot  -6.92002 0.0834798 -3.37334
RightToes  0.00048216 0.542163 -0.142577
Spine  9.96529 -0.50851 4.24949
Spine1  0.544816 0.015938 -0.957548
HEad  -9.16825 0.341062 -3.7025
LeftShoulder1  3.21778 -6.93234 -24.5903
LeftArm  -15.2648 14.3093 -19.6057
LeftForeArm  19.3188 -3.33388 -2.7741
LeftHand  -0.25398 0.0180481 5.50724
RightShoulder  3.41427 7.10546 26.1135
RightArm  -21.5744 -12.4143 18.8333
RightForeArm  0.173525 5.72956 2.79875
RightHand  -2.05342 5.95041 -21.1837
LeftUpLeg  -3.48766 3.51393 -2.27997
LeftLeg  8.36272 8.03928 -0.823324
LeftFoot  -5.69553 -0.00800721 0.856363
LeftToes  1.06244e-005 4.65856e-005 -8.18505e-006
554
root  9.47997 40.7144 -1.09554 -97.3648 -87.4446 96.7684
RightUpLeg  -3.27774 -9.20211 -4.38895
RightLeg  9.95673 -4.33552 3.61961
RightFoot  -6.62394 0.0988631 -3.48374
RightToes  0.00048216 0.542163 -0.142577
Spine  9.31332 -0.367396 2.86415
Spine1  -0.676075 -0.0334079 -0.527012
HEad  -8.22339 0.498419 -2.99686
LeftShoulder1  2.62519 -6.11699 -20.8397
LeftArm  -15.2907 15.0053 -16.7435
LeftForeArm  16.9305 -2.5197 -2.50962
LeftHand  -0.25398 0.0180481 5.50724
RightShoulder  2.84002 6.23656 22.9314
RightArm  -21.4067 -12.2754 14.5616
RightForeArm  -2.70511 5.0602 2.79107
RightHand  -1.93748 5.53626 -20.7492
LeftUpLeg  -2.55933 3.17515 -2.12811
LeftLeg  6.60248 8.45135 -1.91928
LeftFoot  -4.81663 -0.0179599 0.816268
LeftToes  1.06244e-005 4.65856e-005 -8.18505e-006
555
root  9.39014 40.7752 -1.11233 -109.048 -87.1385 108.571
RightUpLeg  -2.93316 -8.91393 -4.51052
RightLeg  9.09733 -4.00889 3.73973
RightFoot  -6.19226 0.125227 -3.71344
RightToes  0.00048216 0.542163 -0.142577
Spine  8.3872 0.0462602 2.56896
Spine1  -1.64584 0.426607 -0.99148
HEad  -7.02274 0.312944 -2.51965
LeftShoulder1  2.10983 -5.29221 -17.2859
LeftArm  -15.8056 15.3594 -13.7693
LeftForeArm  15.2681 -3.29902 -2.24328
LeftHand  -0.25398 0.0180481 5.50724
RightShoulder  2.22434 5.126 19.3081
RightArm  -20.5953 -11.8833 10.5127
RightForeArm  -4.05967 4.69495 2.93373
RightHand  -1.83728 5.13914 -20.422
LeftUpLeg  -1.36244 2.46377 -1.90276
LeftLeg  4.38107 9.71662 -3.0037
LeftFoot  -4.31231 -0.0453285 1.17492
LeftToes  1.06244e-005 4.65856e-005 -8.18505e-006
